<?xml version="1.0" encoding="UTF-8" standalone="no"?><svg xmlns="http://www.w3.org/2000/svg" xmlns:xlink="http://www.w3.org/1999/xlink" contentStyleType="text/css" height="524px" preserveAspectRatio="none" style="width:412px;height:524px;background:#FFFFFF;" version="1.1" viewBox="0 0 412 524" width="412px" zoomAndPan="magnify"><defs/><g><ellipse cx="32" cy="16" fill="#222222" rx="10" ry="10" style="stroke:none;stroke-width:1.0;"/><g id="Idle"><rect fill="#F1F1F1" height="50" rx="12.5" ry="12.5" style="stroke:#181818;stroke-width:0.5;" width="50" x="7" y="87"/><line style="stroke:#181818;stroke-width:0.5;" x1="7" x2="57" y1="113.2969" y2="113.2969"/><text fill="#000000" font-family="sans-serif" font-size="14" lengthAdjust="spacing" textLength="26" x="19" y="104.9951">Idle</text></g><g id="RdyForCmd"><rect fill="#F1F1F1" height="50" rx="12.5" ry="12.5" style="stroke:#181818;stroke-width:0.5;" width="103" x="270.5" y="87"/><line style="stroke:#181818;stroke-width:0.5;" x1="270.5" x2="373.5" y1="113.2969" y2="113.2969"/><text fill="#000000" font-family="sans-serif" font-size="14" lengthAdjust="spacing" textLength="83" x="280.5" y="104.9951">RdyForCmd</text></g><g id="RdyForDlen"><rect fill="#F1F1F1" height="50" rx="12.5" ry="12.5" style="stroke:#181818;stroke-width:0.5;" width="103" x="215.5" y="214"/><line style="stroke:#181818;stroke-width:0.5;" x1="215.5" x2="318.5" y1="240.2969" y2="240.2969"/><text fill="#000000" font-family="sans-serif" font-size="14" lengthAdjust="spacing" textLength="83" x="225.5" y="231.9951">RdyForDlen</text></g><g id="RdyForData"><rect fill="#F1F1F1" height="50" rx="12.5" ry="12.5" style="stroke:#181818;stroke-width:0.5;" width="104" x="183" y="341"/><line style="stroke:#181818;stroke-width:0.5;" x1="183" x2="287" y1="367.2969" y2="367.2969"/><text fill="#000000" font-family="sans-serif" font-size="14" lengthAdjust="spacing" textLength="84" x="193" y="358.9951">RdyForData</text></g><g id="Exec"><rect fill="#F1F1F1" height="50" rx="12.5" ry="12.5" style="stroke:#181818;stroke-width:0.5;" width="54" x="136" y="468"/><line style="stroke:#181818;stroke-width:0.5;" x1="136" x2="190" y1="494.2969" y2="494.2969"/><text fill="#000000" font-family="sans-serif" font-size="14" lengthAdjust="spacing" textLength="34" x="146" y="485.9951">Exec</text></g><!--link *start to Idle--><g id="link_*start_Idle"><path d="M32,26.013 C32,38.698 32,62.409 32,81.57 " fill="none" id="*start-to-Idle" style="stroke:#181818;stroke-width:1.0;"/><polygon fill="#181818" points="32,86.84,36,77.84,32,81.84,28,77.84,32,86.84" style="stroke:#181818;stroke-width:1.0;"/></g><!--link Idle to RdyForCmd--><g id="link_Idle_RdyForCmd"><path d="M57.2283,112 C103.3364,112 202.256,112 265.271,112 " fill="none" id="Idle-to-RdyForCmd" style="stroke:#181818;stroke-width:1.0;"/><polygon fill="#181818" points="270.498,112,261.498,108,265.498,112,261.498,116,270.498,112" style="stroke:#181818;stroke-width:1.0;"/><text fill="#000000" font-family="sans-serif" font-size="13" lengthAdjust="spacing" textLength="177" x="75.25" y="105.0669">Ev_LockRd [unlocked] / lock</text></g><!--link RdyForCmd to RdyForDlen--><g id="link_RdyForCmd_RdyForDlen"><path d="M311.395,137.101 C302.341,157.68 289.297,187.325 279.69,209.16 " fill="none" id="RdyForCmd-to-RdyForDlen" style="stroke:#181818;stroke-width:1.0;"/><polygon fill="#181818" points="277.572,213.973,284.8583,207.3466,279.586,209.3966,277.536,204.1242,277.572,213.973" style="stroke:#181818;stroke-width:1.0;"/><text fill="#000000" font-family="sans-serif" font-size="13" lengthAdjust="spacing" textLength="70" x="298" y="180.0669">Ev_DlenWr</text></g><!--link RdyForDlen to RdyForData--><g id="link_RdyForDlen_RdyForData"><path d="M260.83,264.101 C255.584,284.593 248.036,314.076 242.454,335.884 " fill="none" id="RdyForDlen-to-RdyForData" style="stroke:#181818;stroke-width:1.0;"/><polygon fill="#181818" points="241.151,340.973,247.2584,333.2464,242.3912,336.1293,239.5084,331.2621,241.151,340.973" style="stroke:#181818;stroke-width:1.0;"/><text fill="#000000" font-family="sans-serif" font-size="13" lengthAdjust="spacing" textLength="151" x="253" y="307.0669">Ev_DataInWr / enqueue</text></g><!--link RdyForData to Exec--><g id="link_RdyForData_Exec"><path d="M221.118,391.101 C209.215,411.766 192.045,441.5747 179.454,463.4348 " fill="none" id="RdyForData-to-Exec" style="stroke:#181818;stroke-width:1.0;"/><polygon fill="#181818" points="176.84,467.9727,184.7981,462.1702,179.3355,463.64,177.8657,458.1774,176.84,467.9727" style="stroke:#181818;stroke-width:1.0;"/><text fill="#000000" font-family="sans-serif" font-size="13" lengthAdjust="spacing" textLength="72" x="204" y="434.0669">Ev_ExecWr</text></g><!--link Exec to Exec--><g id="link_Exec_Exec"><path d="M190.088,482.3464 C207.829,479.4585 225,483.0098 225,493 C225,502.0536 210.898,505.819 195.049,504.2961 " fill="none" id="Exec-to-Exec" style="stroke:#181818;stroke-width:1.0;"/><polygon fill="#181818" points="190.088,503.6536,198.499,508.7775,195.0465,504.2964,199.5276,500.8439,190.088,503.6536" style="stroke:#181818;stroke-width:1.0;"/><text fill="#000000" font-family="sans-serif" font-size="13" lengthAdjust="spacing" textLength="162" x="231" y="497.5669">Ev_DataOutRd / dequeue</text></g><!--link Exec to Idle--><g id="link_Exec_Idle"><path d="M154.676,467.9176 C131.653,401.309 67.1741,214.763 42.128,142.302 " fill="none" id="Exec-to-Idle" style="stroke:#181818;stroke-width:1.0;"/><polygon fill="#181818" points="40.3939,137.285,39.5524,147.0978,42.0268,142.0108,47.1138,144.4852,40.3939,137.285" style="stroke:#181818;stroke-width:1.0;"/><text fill="#000000" font-family="sans-serif" font-size="13" lengthAdjust="spacing" textLength="72" x="101" y="307.0669">Ev_ExecWr</text></g><!--SRC=[YzQALT3LjLFmJCb9vU82aGf0Nb1AfLj-aNDkYeALWcjPl4z-SdPGYa9qQLuEa9MQ4gkWhm1YAN0X5Eh2jRdafEP1z85OuKLSIC98gX9B4g6gW2nFe3gWeQbvXQMffQbSI4f0EbmhKfCXQa4ie8bW0LGPa6B_qXAWC_KLKb8Xni2LWVs5P000]--></g></svg>